<svg width="36" height="36" viewBox="0 0 36 36" fill="none" xmlns="http://www.w3.org/2000/svg">
<path d="M24.7046 18.295C24.6766 15.1366 27.2474 13.6 27.365 13.5285C25.909 11.3697 23.6524 11.0747 22.8593 11.0512C20.964 10.8483 19.1255 12.2046 18.16 12.2046C17.1752 12.2046 15.6884 11.0708 14.086 11.1041C12.024 11.1364 10.0949 12.3506 9.0369 14.236C6.85344 18.0803 8.48188 23.7297 10.5738 26.8372C11.6202 28.36 12.843 30.0582 14.4435 29.9985C16.0093 29.9338 16.5942 28.9842 18.4838 28.9842C20.356 28.9842 20.9052 29.9985 22.5375 29.9602C24.218 29.9338 25.276 28.4315 26.2858 26.896C27.4951 25.1526 27.9807 23.4338 28 23.3456C27.9615 23.3319 24.7373 22.0795 24.7046 18.295ZM21.6212 9.00701C22.4633 7.93592 23.0395 6.47874 22.8796 5C21.6607 5.05488 20.1363 5.85745 19.2585 6.90502C18.4818 7.82813 17.7881 9.34117 17.9673 10.7641C19.3365 10.8679 20.7424 10.0614 21.6212 9.00701Z" fill="white"/>
</svg>
