<svg width="36" height="36" viewBox="0 0 36 36" fill="none" xmlns="http://www.w3.org/2000/svg">
<path fill-rule="evenodd" clip-rule="evenodd" d="M22.5033 12.631L12.1016 6.6714C11.6881 6.42964 11.218 6.30144 10.7391 6.29981C10.1605 6.29866 9.5975 6.48672 9.13578 6.83531C8.87372 7.03316 8.65246 7.27656 8.48134 7.55186L18.052 17.025L22.5033 12.631ZM8.09375 8.99736V26.8553L17.1268 17.9383L8.09375 8.99736ZM8.46267 28.3178C8.5495 28.461 8.6499 28.5962 8.76278 28.7214C9.03296 29.0209 9.36758 29.2553 9.74145 29.4068C10.1153 29.5583 10.5187 29.623 10.9212 29.5961C11.3237 29.5691 11.7148 29.4512 12.0651 29.2512L22.533 23.2894L18.0508 18.8529L8.46267 28.3178ZM23.7123 22.6276L27.8329 20.2748C28.1345 20.118 28.4021 19.9033 28.6204 19.6428C28.8387 19.3823 29.0033 19.0813 29.1049 18.7569C29.2064 18.4326 29.2429 18.0914 29.2122 17.753C29.1815 17.4145 29.0842 17.0855 28.9259 16.7847C28.6789 16.3195 28.2982 15.9388 27.8329 15.6918H27.8475L23.6743 13.3017L18.976 17.9396L23.7123 22.6276Z" fill="white"/>
</svg>
