<svg width="45" height="44" viewBox="0 0 45 44" fill="none" xmlns="http://www.w3.org/2000/svg">
<g clip-path="url(#clip0_2504_60793)">
<path d="M22.5112 43.0026C29.3665 43.0026 34.9238 33.5986 34.9238 21.9981C34.9238 10.3977 29.3665 0.993652 22.5112 0.993652C15.6559 0.993652 10.0986 10.3977 10.0986 21.9981C10.0986 33.5986 15.6559 43.0026 22.5112 43.0026Z" stroke="black" stroke-width="1.9899"/>
<path d="M22.4971 0.993652V43.0026" stroke="black" stroke-width="1.9899"/>
<path d="M38.6634 8.59033C36.0522 9.9302 29.9608 12.2274 22.4943 12.2274C15.0277 12.2274 8.93639 9.9302 6.3252 8.59033" stroke="black" stroke-width="1.9899" stroke-linecap="round"/>
<path d="M38.6634 35.4066C36.0522 34.0668 29.9608 31.7695 22.4943 31.7695C15.0277 31.7695 8.93639 34.0668 6.3252 35.4066" stroke="black" stroke-width="1.9899" stroke-linecap="round"/>
<path d="M42.4885 22.9937C42.3846 25.1074 41.9512 27.1326 41.2393 29.0253C41.8915 29.2331 42.5216 29.4453 43.1252 29.662C43.9057 27.5704 44.3745 25.3285 44.4784 22.9937H42.4863H42.4885Z" fill="black"/>
<path d="M22.5036 42.0084C13.9426 42.0084 6.62198 36.6047 3.76978 29.0276C3.11753 29.2354 2.48739 29.4477 1.88379 29.6644C5.00131 38.0264 13.0693 43.9983 22.5058 43.9983C31.9424 43.9983 40.0104 38.0242 43.1279 29.6622C42.5221 29.4477 41.8919 29.2354 41.2419 29.0254C38.3897 36.6025 31.0691 42.0084 22.5081 42.0084H22.5036Z" fill="black"/>
<path d="M3.76184 14.9712C3.1096 14.7634 2.47946 14.5512 1.87585 14.3345C1.09537 16.4283 0.624425 18.6702 0.520508 21.0051H2.51262C2.61654 18.8913 3.0499 16.8639 3.76405 14.9712H3.76184Z" fill="black"/>
<path d="M22.5019 1.99039C31.063 1.99039 38.3858 7.39628 41.2358 14.9734C41.888 14.7655 42.5182 14.5533 43.1218 14.3366C40.0065 5.97461 31.9385 0.000488281 22.5019 0.000488281C13.0654 0.000488281 4.99961 5.9724 1.87988 14.3344C2.4857 14.5489 3.11584 14.7633 3.76587 14.9712C6.62028 7.39407 13.9409 1.99039 22.5019 1.99039Z" fill="black"/>
<path d="M42.49 21.0034H2.51944C2.50396 21.3329 2.49512 21.6645 2.49512 21.9984H42.5143C42.5143 21.6645 42.5055 21.3329 42.49 21.0034Z" fill="black"/>
<path d="M2.49512 21.9995C2.49512 22.3334 2.50396 22.665 2.51944 22.9945H42.49C42.5055 22.665 42.5143 22.3334 42.5143 21.9995H2.49512Z" fill="black"/>
<path d="M42.5116 21.9984C42.5116 22.3322 42.5028 22.6639 42.4873 22.9933H44.4794C44.4949 22.6639 44.5037 22.3322 44.5037 21.9984C44.5037 21.6645 44.4949 21.3329 44.4794 21.0034H42.4873C42.5028 21.3329 42.5116 21.6645 42.5116 21.9984Z" fill="black"/>
<path d="M2.48698 21.9984C2.48698 21.6645 2.49582 21.3329 2.5113 21.0034H0.521391C0.505914 21.3329 0.49707 21.6645 0.49707 21.9984C0.49707 22.3322 0.505914 22.6639 0.521391 22.9933H2.51351C2.49803 22.6639 2.48919 22.3322 2.48919 21.9984H2.48698Z" fill="black"/>
</g>
<defs>
<clipPath id="clip0_2504_60793">
<rect width="43.999" height="43.9989" fill="white" transform="translate(0.5 0.000488281)"/>
</clipPath>
</defs>
</svg>
